<svg xmlns="http://www.w3.org/2000/svg" xmlns:xlink="http://www.w3.org/1999/xlink" version="1.1" x="0px" y="0px" viewBox="0 0 100 100" enable-background="new 0 0 100 100" xml:space="preserve"><path d="M50,5c11.516,0,23.033,4.393,31.82,13.18c17.574,17.574,17.574,46.066,0,63.64C73.033,90.607,61.517,95,50,95  c-11.517,0-23.033-4.393-31.82-13.18c-17.574-17.574-17.574-46.066,0-63.64C26.967,9.393,38.484,5,50,5 M45.777,67.202  c1.469,0,2.817-1.174,2.817-2.817v-28.77c0-1.643-1.348-2.817-2.817-2.817c-0.472,0-0.957,0.121-1.413,0.387l-11.272,6.575  c-0.864,0.504-1.395,1.429-1.395,2.429v15.62c0,1,0.531,1.925,1.395,2.429l11.272,6.575C44.82,67.081,45.305,67.202,45.777,67.202   M57.031,54.44L57.031,54.44h4.219v4.219v0c0,2.33,1.889,4.219,4.219,4.219c2.33,0,4.219-1.889,4.219-4.219V54.44h4.219  c2.33,0,4.219-1.889,4.219-4.219c0-2.33-1.889-4.219-4.219-4.219h-4.219v-4.219c0-1.08-0.412-2.159-1.236-2.983  c-0.824-0.824-1.903-1.236-2.983-1.236c-1.08,0-2.159,0.412-2.983,1.236c-0.824,0.824-1.236,1.903-1.236,2.983v4.219h-4.219v0  c-1.08,0-2.159,0.412-2.983,1.236c-1.648,1.648-1.648,4.319,0,5.966C54.872,54.028,55.952,54.44,57.031,54.44 M24.684,59.841h1.409  c1.552,0,2.809-1.258,2.809-2.809V42.969c0-1.552-1.258-2.809-2.809-2.809h-1.409c-1.552,0-2.809,1.258-2.809,2.809v14.062  C21.875,58.583,23.133,59.841,24.684,59.841 M50,3C37.446,3,25.643,7.889,16.766,16.766c-18.325,18.325-18.325,48.143,0,66.468  C25.643,92.111,37.446,97,50,97s24.357-4.889,33.234-13.766c18.325-18.325,18.325-48.143,0-66.468C74.357,7.889,62.554,3,50,3L50,3z   M45.777,65.202c-0.14,0-0.272-0.038-0.405-0.115L34.1,58.512c-0.249-0.145-0.403-0.414-0.403-0.702V42.19  c0-0.288,0.154-0.557,0.403-0.702l11.272-6.575c0.131-0.076,0.267-0.115,0.405-0.115c0.209,0,0.419,0.086,0.576,0.237  c0.16,0.153,0.241,0.349,0.241,0.58v28.77C46.594,64.942,46.106,65.202,45.777,65.202L45.777,65.202z M57.031,52.44  c-0.593,0-1.15-0.231-1.569-0.65c-0.419-0.419-0.65-0.976-0.65-1.569c0-0.593,0.231-1.15,0.65-1.569  c0.419-0.419,0.976-0.65,1.569-0.65l4.219,0c1.104,0,2-0.895,2-2v-4.219c0-0.593,0.231-1.15,0.65-1.569  c0.419-0.419,0.976-0.65,1.569-0.65c0.593,0,1.15,0.231,1.569,0.65c0.419,0.419,0.65,0.976,0.65,1.569v4.219c0,1.105,0.895,2,2,2  h4.219c1.223,0,2.219,0.995,2.219,2.219s-0.995,2.219-2.219,2.219h-4.219c-1.105,0-2,0.895-2,2v4.219  c0,1.223-0.995,2.219-2.219,2.219c-0.593,0-1.15-0.231-1.569-0.65c-0.419-0.419-0.65-0.976-0.65-1.569V54.44c0-1.105-0.895-2-2-2  H57.031L57.031,52.44L57.031,52.44z M24.684,57.841c-0.446,0-0.809-0.363-0.809-0.809V42.969c0-0.446,0.363-0.809,0.809-0.809h1.409  c0.446,0,0.809,0.363,0.809,0.809v14.062c0,0.446-0.363,0.809-0.809,0.809H24.684L24.684,57.841z"></path></svg>